<?xml version="1.0" encoding="utf-8"?>
<!-- Generator: Adobe Illustrator 26.1.0, SVG Export Plug-In . SVG Version: 6.00 Build 0)  -->
<svg version="1.1" id="Layer_1" xmlns="http://www.w3.org/2000/svg" xmlns:xlink="http://www.w3.org/1999/xlink" x="0px" y="0px"
	 viewBox="0 0 500 500" style="enable-background:new 0 0 500 500;" xml:space="preserve">
<style type="text/css">
	.st0{fill:#1B1B1B;}
</style>
<g>
	<g>
		<path class="st0" d="M422.06,357.59c6.69,0.16,15.12-4.31,18.75-9.93l24.7-38.25c3.63-5.62,1.13-10.33-5.56-10.48l-88.34-1.9
			c-6.69-0.14-14.86,3.85-18.17,8.88c-3.31,5.03-0.54,9.27,6.14,9.41l67.32,1.49c6.69,0.15,9.18,4.86,5.54,10.47l-0.89,1.37
			c-3.64,5.61-12.08,10.08-18.77,9.92l-92.37-2.12c-6.69-0.15-9.14-4.85-5.46-10.43l12.98-19.66c3.68-5.58,1.23-10.26-5.46-10.41
			l-42.27-0.91c-6.69-0.14-15.19,4.29-18.9,9.85l-25.36,38c-3.71,5.56-2.03,10.23,3.75,10.36c5.77,0.14,13.52-4.31,17.23-9.88
			l13.16-19.79c3.7-5.57,12.2-10,18.89-9.85l0.46,0.01c6.69,0.15,9.13,4.83,5.44,10.41l-54.47,82.23
			c-3.69,5.57-12.18,9.99-18.87,9.82l-0.66-0.02c-6.68-0.17-9.12-4.87-5.42-10.44l13.5-20.3c3.7-5.57,2-10.24-3.78-10.38
			s-13.55,4.29-17.26,9.86l-53.08,79.56c-3.71,5.56-1.28,10.27,5.41,10.45l182.69,5.1c6.68,0.19,15.12-4.26,18.75-9.87l51.75-80.13
			c3.63-5.62,1.13-10.35-5.56-10.51l-89.07-2.17c-6.69-0.16-14.91,3.89-18.27,9c-3.36,5.11-0.64,9.43,6.04,9.6l67.91,1.7
			c6.69,0.17,9.18,4.9,5.54,10.51l-1.12,1.73c-3.64,5.61-12.08,10.06-18.77,9.89l-93.13-2.41c-6.68-0.17-9.14-4.88-5.46-10.46
			l27.85-42.19c3.68-5.58,12.17-10.02,18.85-9.86L422.06,357.59z M347.94,438.62c6.68,0.18,9.18,4.91,5.54,10.53l-1.24,1.92
			c-3.64,5.61-12.08,10.05-18.77,9.87l-139.79-3.81c-6.68-0.18-9.12-4.89-5.42-10.46l1.29-1.94c3.7-5.57,12.2-9.98,18.89-9.8
			L347.94,438.62z"/>
		<g>
			<path class="st0" d="M485.89,259.55l-76.49-1.54c0.3-1.74-0.09-3.91-1.24-6.24l-8.92-18.12c-2.96-6-10.85-11.03-17.53-11.16
				l-103.86-2.15c-6.68-0.14-14.49-5.13-17.35-11.1c-2.86-5.97,0.27-10.76,6.96-10.66l126.91,2.14c6.68,0.12,14.58,5.11,17.55,11.1
				l9.64,19.48c2.97,5.99,10.87,11.03,17.55,11.18l40.23,0.96c6.68,0.17,9.7-4.6,6.69-10.57l-40.28-80.18
				c-3.01-5.98-10.94-10.9-17.62-10.95l-38.92-0.25c-6.69-0.04-9.73,4.82-6.77,10.82l9.38,18.92c2.97,5.99-0.08,10.82-6.76,10.72
				l-84.44-1.15c-6.68-0.09-14.51-5.05-17.4-11.01c-2.87-5.96,0.23-10.78,6.93-10.71l60.53,0.58c6.68,0.07,10.1-4.05,7.59-9.15
				c-2.51-5.09-10.03-9.3-16.72-9.35l-79.24-0.52c-6.68-0.05-9.79,4.85-6.89,10.88l8.61,17.88c2.89,6.03,0.15,10.89-6.11,10.8
				c-6.25-0.08-13.71-5.09-16.57-11.14l-8.33-17.65c-2.85-6.05-9.47-11.03-14.69-11.06c-5.23-0.03-7.15,4.88-4.27,10.92l36.11,75.81
				c2.87,6.04,10.69,11.1,17.39,11.27l103.45,2.47c6.68,0.17,14.46,5.02,17.3,10.78c1.07,2.17,0.88,4.23,2.68,5.94
				c0.04,0.04,0.02,0.11-0.04,0.11l-129.98-2.67c-6.69-0.14-15.21,4.3-18.94,9.85l-133.3,198.38c-3.73,5.55-2.04,10.22,3.78,10.38
				c5.81,0.17,13.61-4.25,17.33-9.81l120.87-180.47c3.73-5.55,12.24-9.98,18.92-9.85l204.47,4.26c6.69,0.14,14.8-3.85,18.04-8.85
				C495.39,263.9,492.57,259.68,485.89,259.55z M417.86,160.35c6.39,0.06,14.06,5.01,17.05,10.99l20.98,41.93
				c2.99,5.98,0.15,10.76-6.33,10.63c-6.47-0.13-14.2-5.14-17.18-11.12l-20.72-41.65C408.69,165.13,411.47,160.29,417.86,160.35z"/>
		</g>
	</g>
	<g>
		<path class="st0" d="M379.5,60.29c0.07,0,0.15,0.04,0.18,0.09c0.02,0.05-0.02,0.09-0.09,0.09c-0.07,0-0.15-0.04-0.18-0.09
			C379.39,60.33,379.43,60.29,379.5,60.29z"/>
		<path class="st0" d="M379.5,60.29c0.07,0,0.15,0.04,0.18,0.09c0.02,0.05-0.02,0.09-0.09,0.09c-0.07,0-0.15-0.04-0.18-0.09
			C379.39,60.33,379.43,60.29,379.5,60.29z"/>
		<path class="st0" d="M396.37,78.67c6.69-0.03,9.7-4.94,6.7-10.92l-18.64-37.1c-3-5.98-9.83-10.8-15.18-10.72
			c-5.35,0.08-7.67,4.25-5.16,9.26s4.5,9.12,4.43,9.12c-0.07,0,2.31,4.89,5.31,10.88l0.11,0.23c2.99,5.98,5.5,10.87,5.57,10.87
			c0.07,0,0.15,0.04,0.18,0.09c0.02,0.05-0.02,0.09-0.09,0.09c-0.07,0-0.15-0.04-0.18-0.09c-0.02-0.05-5.17-0.05-11.43,0
			c-6.26,0.05-13.82-4.81-16.8-10.8l-9.1-18.29c-2.98-5.99-10.89-10.8-17.57-10.71l-159.34,2.35c-6.69,0.1-10.27,4.14-7.97,8.97
			s9.66,8.73,16.35,8.65l16.17-0.19c6.69-0.08,14.47,4.66,17.29,10.53s-0.34,10.71-7.03,10.76l-16.35,0.13
			c-6.69,0.05-10.26,4.09-7.93,8.96s9.7,8.85,16.38,8.82l35.28-0.16c6.69-0.03,9.78-4.98,6.87-11l-8.43-17.45
			c-2.91-6.02,0.18-11.01,6.87-11.09L272,39.43c6.69-0.08,14.55,4.73,17.47,10.69c2.92,5.95-0.16,10.87-6.85,10.92l-17.31,0.13
			c-6.69,0.05-9.77,5.01-6.85,11.03l8.74,17.99c2.92,6.02-0.16,10.94-6.85,10.94l-58.01,0.03c-6.69,0-10.24,4.03-7.89,8.96
			c2.35,4.92,9.74,8.97,16.42,8.98l77.53,0.21c6.69,0.02,9.76-4.88,6.83-10.89l-8.94-18.31c-2.93-6.01-0.22-10.95,6.02-10.98
			s13.76,4.86,16.71,10.87l9.07,18.5c2.94,6,10.83,10.93,17.51,10.95l81.39,0.22c6.69,0.02,10.05-4.16,7.47-9.29
			c-2.58-5.13-10.16-9.32-16.84-9.32l-18.67,0.01c-6.69,0-14.6-4.89-17.58-10.88l-0.25-0.5c-2.98-5.99,0.05-10.91,6.74-10.94
			L396.37,78.67z M308.71,49.93c-2.94-5.97-0.21-10.92,6.08-10.99c6.29-0.07,13.86,4.77,16.83,10.76l0.01,0.02
			c2.97,5.99,0.23,10.93-6.08,10.98C319.23,60.75,311.65,55.9,308.71,49.93z M351.67,90.19c2.97,5.99,0.19,10.9-6.18,10.9
			c-6.37,0-13.99-4.9-16.95-10.9l-0.14-0.29c-2.96-6-0.19-10.93,6.15-10.96c6.34-0.03,13.95,4.85,16.92,10.84L351.67,90.19z"/>
	</g>
	<g>
		<path class="st0" d="M161.77,149.43c-3.55,5.67-4.47,14.58-2.05,19.81c2.42,5.23,7.33,4.88,10.89-0.78l0.65-1.03
			c3.57-5.66,8.81-5.33,11.65,0.72l5.33,11.36c2.84,6.05,2.22,15.62-1.37,21.26l-6.11,9.59c-3.6,5.64-8.83,5.28-11.63-0.79
			l-8.83-19.14c-2.8-6.07-8.01-6.41-11.57-0.75l-48.56,77.17c-3.56,5.66-4.28,15.3-1.6,21.43l8.67,19.79
			c2.68,6.13,3.01,14.06,0.73,17.63s-6.33,1.48-8.99-4.65L88.4,296.77c-2.67-6.13-7.36-7.16-10.42-2.28s-3.41,13.9-0.76,20.04
			l10.46,24.28c2.65,6.14,1.87,15.78-1.73,21.42l-0.01,0.02c-3.6,5.64-8.68,5.22-11.3-0.94l-30.74-72.18
			c-2.62-6.15-1.92-15.79,1.57-21.42c3.48-5.63,8.49-5.21,11.14,0.93l8.09,18.79c2.65,6.14,7.72,6.53,11.27,0.87l22.73-36.26
			c3.55-5.67,4.57-14.56,2.26-19.75c-2.31-5.2-7.09-4.81-10.63,0.87l-11.5,18.46c-3.54,5.68-8.6,5.33-11.25-0.77
			s-1.94-15.74,1.58-21.43l24.61-39.79c3.52-5.69,8.63-5.36,11.37,0.72c2.73,6.08,7.86,6.42,11.4,0.74l23.62-37.9
			c3.54-5.68,4.13-15.28,1.32-21.35l-27.27-58.82c-2.81-6.07-7.64-6.88-10.72-1.8s-3.32,14.21-0.53,20.28l18.43,40.14
			c2.79,6.08,2.19,15.7-1.33,21.39l-0.65,1.05c-3.52,5.69-8.66,5.35-11.43-0.74l-18.22-40.16c-2.76-6.09-7.51-6.98-10.55-1.97
			s-3.28,14.09-0.54,20.19l8.19,18.23c2.74,6.1,2.12,15.75-1.39,21.45l-47.89,77.87c-3.5,5.7-8.51,5.34-11.12-0.79
			c-2.61-6.13-1.9-15.82,1.59-21.52l34.42-56.37c3.48-5.71,4.52-14.48,2.29-19.49c-2.23-5.01-6.89-4.43-10.36,1.28L9.65,223.79
			c-3.47,5.72-4.18,15.43-1.58,21.6l86.35,204.68c2.6,6.16,7.3,7.26,10.45,2.44c3.15-4.82,3.58-13.8,0.96-19.95l-13.33-31.31
			c-2.62-6.15-1.81-15.79,1.8-21.42l0.04-0.06c3.61-5.63,8.73-5.21,11.38,0.93l11.05,25.67c2.65,6.14,7.42,7.16,10.61,2.27
			c3.19-4.89,3.62-13.91,0.95-20.05l-11.17-25.68c-2.67-6.13-2.97-14.08-0.68-17.65c2.3-3.58,6.37-1.49,9.05,4.64l8.54,19.51
			c2.68,6.13,7.86,6.55,11.51,0.95l50.55-77.69c3.65-5.61,4.34-15.16,1.54-21.23l-9.37-20.3c-2.8-6.07-2.14-15.64,1.47-21.27
			l6.19-9.65c3.61-5.63,8.89-5.28,11.73,0.78l5.72,12.19c2.84,6.05,2.18,15.6-1.46,21.21l-0.82,1.27c-3.64,5.61-4.54,14.69-2,20.17
			s7.62,5.39,11.27-0.21l13.22-20.24c3.66-5.6,4.31-15.12,1.44-21.17l-49.22-103.89c-2.86-6.04-8.11-6.35-11.66-0.69L161.77,149.43z
			 M150.84,310.28c2.69,6.01,1.92,15.52-1.71,21.14l-0.65,1.01c-3.63,5.62-8.78,5.29-11.44-0.72c-2.66-6.01-1.88-15.54,1.73-21.17
			l0.61-0.95C143,303.96,148.15,304.27,150.84,310.28z M132.26,268.73c2.73,6.1,2.02,15.71-1.57,21.35l-0.58,0.9
			c-3.6,5.64-8.75,5.25-11.46-0.87l-0.28-0.63c-2.7-6.12-1.99-15.74,1.59-21.39l0.53-0.84c3.58-5.65,8.74-5.28,11.47,0.83
			L132.26,268.73z M176.62,270.26c2.74,6,2.02,15.51-1.61,21.13l-0.87,1.34c-3.63,5.62-8.82,5.3-11.53-0.71
			c-2.71-6.01-1.98-15.53,1.63-21.16l0.82-1.28C168.67,263.95,173.87,264.26,176.62,270.26z M157.67,228.79
			c2.78,6.08,2.11,15.67-1.48,21.31l-0.78,1.23c-3.6,5.64-8.79,5.26-11.54-0.83l-0.31-0.68c-2.75-6.09-2.08-15.7,1.5-21.35
			l0.74-1.17c3.58-5.65,8.78-5.3,11.56,0.79L157.67,228.79z"/>
		<path class="st0" d="M127.8,29.15c3.13-5.15,8.03-4.43,10.89,1.62l27.83,58.74c2.86,6.04,2.57,15.22-0.66,20.4
			c-3.22,5.17-8.19,4.45-11.02-1.6l-27.57-58.78C124.43,43.48,124.67,34.31,127.8,29.15z"/>
	</g>
</g>
</svg>
