<?xml version="1.0" encoding="utf-8"?>
<!-- Generator: Adobe Illustrator 26.2.1, SVG Export Plug-In . SVG Version: 6.00 Build 0)  -->
<svg version="1.1" id="Layer_1" xmlns="http://www.w3.org/2000/svg" xmlns:xlink="http://www.w3.org/1999/xlink" x="0px" y="0px"
	 viewBox="0 0 500 500" style="enable-background:new 0 0 500 500;" xml:space="preserve">
<style type="text/css">
	.st0{fill:#FFFFFF;}
</style>
<g>
	<g>
		<path class="st0" d="M420.86,175.05H79.14c-9.48,0-17.16-7.68-17.16-17.16v-14.08c0-9.48,7.68-17.16,17.16-17.16h341.71
			c9.48,0,17.16,7.68,17.16,17.16v14.08C438.02,167.37,430.33,175.05,420.86,175.05z"/>
	</g>
	<g>
		<path class="st0" d="M478.13,274.2H21.87c-9.48,0-17.16-7.68-17.16-17.16v-14.08c0-9.48,7.68-17.16,17.16-17.16h456.26
			c9.48,0,17.16,7.68,17.16,17.16v14.08C495.29,266.52,487.61,274.2,478.13,274.2z"/>
	</g>
	<g>
		<path class="st0" d="M420.86,373.35H79.14c-9.48,0-17.16-7.68-17.16-17.16v-14.08c0-9.48,7.68-17.16,17.16-17.16h341.71
			c9.48,0,17.16,7.68,17.16,17.16v14.08C438.02,365.67,430.33,373.35,420.86,373.35z"/>
	</g>
</g>
</svg>
