<?xml version="1.0" encoding="utf-8"?>
<!-- Generator: Adobe Illustrator 26.2.1, SVG Export Plug-In . SVG Version: 6.00 Build 0)  -->
<svg version="1.1" id="Layer_1" xmlns="http://www.w3.org/2000/svg" xmlns:xlink="http://www.w3.org/1999/xlink" x="0px" y="0px"
	 viewBox="0 0 300 300" style="enable-background:new 0 0 300 300;" xml:space="preserve">
<style type="text/css">
	.st0{clip-path:url(#SVGID_00000042009990105514606070000012969714989704810169_);}
	.st1{clip-path:url(#SVGID_00000068653997369230453680000008525688631726247834_);fill:#FFFFFF;}
</style>
<g id="Artwork_12_00000088815179984869570540000013319635193274245540_">
	<g>
		<defs>
			<rect id="SVGID_1_" x="10" y="10" width="280" height="280"/>
		</defs>
		<use xlink:href="#SVGID_1_"  style="overflow:visible;fill:#FFFFFF;"/>
		<clipPath id="SVGID_00000112621359755479567840000000872805446000714892_">
			<use xlink:href="#SVGID_1_"  style="overflow:visible;"/>
		</clipPath>
		<g style="clip-path:url(#SVGID_00000112621359755479567840000000872805446000714892_);">
			<defs>
				<rect id="SVGID_00000099628257724184396590000010241012281291703472_" x="10" y="10" width="280" height="280"/>
			</defs>
			<use xlink:href="#SVGID_00000099628257724184396590000010241012281291703472_"  style="overflow:visible;fill:#FFFFFF;"/>
			<clipPath id="SVGID_00000103245398897393302520000015389692820237893264_">
				<use xlink:href="#SVGID_00000099628257724184396590000010241012281291703472_"  style="overflow:visible;"/>
			</clipPath>
			<path style="clip-path:url(#SVGID_00000103245398897393302520000015389692820237893264_);fill:#FFFFFF;" d="M150.04,109.34
				c16.4,0,31.15,9.75,37.57,24.85c8.81,20.71-0.87,44.72-21.58,53.52c-5.1,2.17-10.46,3.27-15.94,3.27
				c-16.41,0-31.16-9.75-37.58-24.85c-8.8-20.71,0.88-44.72,21.58-53.52C139.19,110.44,144.56,109.34,150.04,109.34L150.04,109.34z
				 M150.04,98.43c-6.75,0-13.61,1.33-20.21,4.14c-26.28,11.18-38.52,41.54-27.34,67.82c8.37,19.68,27.49,31.48,47.61,31.48
				c6.75,0,13.61-1.33,20.21-4.14c26.28-11.18,38.52-41.54,27.35-67.82C189.28,110.24,170.16,98.43,150.04,98.43"/>
			<path style="clip-path:url(#SVGID_00000103245398897393302520000015389692820237893264_);fill:#FFFFFF;" d="M179.7,23.54
				l35.13,14.16l-6.92,32.41l-1.35,6.33l4.91,4.22l7.11,6.11l4.2,3.6l5.38-1.26l32.26-7.53l14.82,34.86l-27.81,18.01l-5.43,3.52
				l0.49,6.45l0.71,9.35l0.42,5.52l4.7,2.92l28.15,17.49l-14.16,35.13l-32.4-6.93l-6.33-1.35l-4.22,4.91l-6.11,7.12l-3.6,4.19
				l1.26,5.38l7.54,32.27l-34.86,14.82l-18.01-27.81l-3.52-5.44l-6.46,0.49l-9.35,0.71l-5.51,0.42l-2.92,4.7l-17.49,28.15
				L85.18,262.3l6.92-32.41l1.35-6.33l-4.91-4.22l-7.12-6.11l-4.19-3.6l-5.38,1.26l-32.27,7.53l-14.82-34.86l27.81-18.01l5.43-3.52
				l-0.49-6.45l-0.71-9.35l-0.42-5.52l-4.7-2.92L23.54,120.3L37.7,85.17l32.4,6.93l6.33,1.35l4.22-4.91l6.11-7.12l3.6-4.19
				l-1.26-5.38l-7.53-32.27l34.86-14.82l18.01,27.81l3.52,5.44l6.46-0.49l9.35-0.71l5.51-0.42l2.92-4.7L179.7,23.54z M175.27,10
				l-22.33,35.93l-9.35,0.71l-23-35.51l-51.73,22l9.62,41.19l-6.1,7.12L31.02,72.6L10,124.73l35.93,22.32l0.71,9.35l-35.5,23
				l22,51.72l41.19-9.62l7.11,6.11l-8.84,41.37L124.73,290l22.33-35.93l9.35-0.71l23,35.5l51.72-22l-9.62-41.19l6.11-7.12
				l41.37,8.85L290,175.27l-35.93-22.32l-0.71-9.35l35.5-23l-22-51.72l-41.19,9.62l-7.12-6.11l8.84-41.37L175.27,10z"/>
		</g>
	</g>
</g>
</svg>
